<svg version="1.0" xmlns="http://www.w3.org/2000/svg"
 width="541.000000pt" height="248.000000pt" viewBox="0 0 541.000000 248.000000"
 preserveAspectRatio="xMidYMid meet">
<g transform="translate(0.000000,248.000000) scale(0.100000,-0.100000)"
fill="#000000" stroke="none">
<path d="M0 1235 l0 -1235 2695 0 2695 0 0 1235 0 1235 -2695 0 -2695 0 0
-1235z m5268 3 l2 -1148 -2590 0 -2590 0 0 1145 0 1145 358 2 c196 2 1360 3
2587 3 l2230 0 3 -1147z"/>
<path d="M118 2280 c-2 -41 -3 -288 -3 -548 l0 -473 800 0 c440 1 817 1 838 1
34 0 37 2 37 29 0 27 -3 30 -49 36 -26 4 -60 13 -75 20 -16 9 -28 10 -32 4 -4
-6 -11 -6 -20 2 -10 8 -11 16 -3 31 8 15 13 17 24 8 8 -6 23 -9 33 -6 11 4 24
0 31 -8 6 -8 20 -12 30 -9 11 3 28 0 39 -6 18 -10 20 -6 26 66 11 137 9 153
-18 153 -15 0 -26 -7 -29 -20 -7 -28 -57 -28 -57 -1 0 11 -4 23 -10 26 -14 9
-12 82 3 88 6 3 0 6 -14 6 -23 1 -25 -2 -21 -29 3 -18 -2 -35 -12 -45 -9 -9
-16 -22 -16 -30 0 -7 -9 -15 -21 -18 -12 -3 -18 -10 -14 -16 3 -6 10 -9 15 -6
4 3 6 -5 2 -17 -3 -12 -7 -17 -10 -10 -4 14 -38 16 -46 3 -3 -5 -15 -7 -26 -4
-17 4 -19 11 -14 42 5 28 1 40 -14 54 -13 12 -22 15 -27 8 -3 -6 -15 -11 -26
-11 -17 0 -24 16 -20 43 0 4 -4 7 -9 7 -6 0 -10 -4 -10 -10 0 -5 -11 -17 -24
-25 -27 -18 -51 -11 -93 28 -13 11 -26 17 -30 14 -3 -4 -1 -7 7 -7 10 0 10 -3
1 -14 -9 -11 -10 -20 -2 -35 9 -17 8 -22 -10 -31 -35 -19 -48 -6 -51 57 -3 52
-5 58 -26 61 -16 3 -25 -2 -28 -15 -5 -18 -11 -19 -66 -11 -33 4 -64 5 -69 2
-5 -3 -9 4 -9 14 0 11 8 22 18 24 14 4 19 16 20 43 2 39 18 69 33 60 12 -8 30
31 23 49 -4 12 0 16 15 16 12 0 21 5 21 10 0 6 -4 10 -10 10 -13 0 -13 37 0
45 11 7 70 -53 70 -72 0 -15 32 -25 53 -17 9 3 19 22 22 42 3 21 11 55 16 77
8 28 8 40 0 43 -6 2 -11 12 -11 22 0 10 -7 31 -15 46 -8 16 -18 46 -21 67 -8
49 -27 43 -35 -11 -5 -36 -3 -42 13 -42 20 0 25 -30 6 -31 -7 0 -3 -4 9 -9 20
-8 21 -12 11 -42 -6 -18 -13 -39 -14 -46 -3 -9 -17 -11 -54 -6 -50 7 -50 7
-65 -29 -12 -29 -21 -36 -53 -42 -27 -4 -52 -1 -78 10 -52 21 -152 24 -164 5
-7 -11 -30 -16 -82 -17 -40 -1 -76 -2 -80 -2 -3 -1 -1 -12 5 -25 l12 -25 8 22
c8 21 9 20 22 -10 16 -37 21 -39 44 -19 9 8 35 17 59 21 40 6 42 6 42 -18 0
-23 -3 -25 -39 -20 -23 3 -41 1 -45 -6 -9 -14 -86 -15 -86 -1 0 5 -7 7 -15 4
-26 -10 -45 14 -35 42 9 23 7 24 -26 24 -28 0 -34 -4 -32 -17 2 -14 -5 -19
-29 -21 -18 -2 -33 1 -33 7 0 5 -19 11 -42 13 -41 3 -43 4 -51 44 -4 22 -16
50 -27 62 -18 19 -18 22 -4 30 14 8 12 10 -10 16 -34 8 -33 27 2 46 22 13 27
23 27 55 0 29 4 40 15 41 21 1 53 16 68 31 8 7 36 13 65 13 38 0 56 5 74 22
13 12 23 16 23 10 0 -15 44 -16 70 -2 15 8 21 6 30 -7 8 -13 13 -14 16 -5 3 7
24 12 49 12 24 0 47 5 50 11 4 6 38 9 78 9 80 -2 87 -2 172 -1 36 0 62 -4 67
-12 6 -9 8 -9 8 1 0 9 7 11 23 7 15 -4 18 -3 9 3 -11 7 -11 10 2 15 9 4 20 -1
25 -11 6 -9 11 -11 11 -5 0 9 11 11 33 8 17 -3 64 -7 102 -9 107 -6 168 -17
187 -33 10 -9 24 -13 32 -10 9 4 19 -1 24 -10 5 -9 25 -16 46 -18 43 -2 56
-12 36 -26 -12 -8 -10 -9 7 -4 15 4 29 -1 43 -15 l22 -22 -34 2 c-18 1 -37 2
-43 1 -5 -1 11 -21 35 -46 24 -25 47 -42 50 -37 4 4 5 81 2 172 l-4 165 -833
0 -834 0 -3 -75z m809 -475 c13 35 22 40 37 20 19 -24 15 -121 -6 -154 -15
-24 -58 -28 -122 -10 -33 9 -41 8 -60 -10 -26 -24 -58 -27 -76 -6 -6 7 -32 17
-56 21 -41 6 -44 8 -44 38 0 45 10 76 25 76 13 0 35 -41 35 -65 0 -8 5 -15 11
-15 5 0 8 4 5 8 -3 5 4 14 14 22 10 8 17 17 14 21 -7 12 27 26 66 27 31 1 38
-3 50 -31 l14 -32 4 39 c2 21 10 50 19 63 l16 24 25 -23 c14 -13 26 -18 29
-13z m218 -322 c-6 -24 -5 -25 12 -12 10 8 22 20 26 27 5 7 13 9 20 5 6 -3 30
-6 53 -4 23 1 45 -3 48 -8 4 -6 13 -8 21 -5 8 4 17 -1 21 -9 3 -9 12 -13 20
-10 8 3 14 1 14 -4 0 -5 9 -10 20 -11 11 -1 29 -3 40 -4 14 -2 18 -7 15 -19
-3 -10 -1 -20 5 -24 23 -14 9 -27 -22 -20 -18 4 -57 11 -85 14 -50 7 -52 6
-36 -11 21 -23 13 -23 -85 6 -104 30 -132 48 -132 84 0 23 5 28 26 30 24 2 26
-1 19 -25z"/>
<path d="M1839 2298 c-3 -35 -5 -283 -4 -553 l0 -490 780 -1 c429 0 808 1 843
4 l62 4 -2 263 c-2 145 -6 267 -10 271 -4 4 -25 0 -45 -8 -38 -14 -41 -21 -27
-65 4 -14 2 -23 -5 -23 -6 0 -11 11 -11 25 0 14 -7 28 -15 32 -23 8 -27 -1
-14 -31 13 -28 4 -50 -11 -26 -7 10 -10 11 -10 3 0 -18 -21 -16 -34 3 -10 13
-12 11 -14 -12 -2 -21 1 -25 16 -19 14 5 15 4 5 -6 -19 -19 -17 -50 3 -42 12
4 15 2 10 -8 -3 -8 -9 -22 -12 -31 -4 -10 -14 -18 -23 -18 -25 0 -33 -11 -20
-26 9 -11 5 -16 -16 -24 -14 -5 -35 -10 -46 -10 -17 0 -19 5 -13 35 9 48 -9
69 -53 60 -31 -6 -39 0 -34 28 2 12 -10 8 -36 -13 -28 -22 -54 -19 -87 9 -14
11 -17 12 -11 2 6 -11 4 -13 -8 -8 -14 5 -16 2 -11 -17 4 -18 0 -27 -16 -36
-37 -20 -53 -5 -47 42 9 67 -20 99 -57 62 -20 -19 -147 -16 -154 4 -2 6 3 12
11 12 9 0 24 11 35 25 11 13 22 21 26 18 3 -3 6 1 6 11 0 9 -4 14 -10 11 -5
-3 -10 0 -10 8 0 24 31 30 37 8 3 -11 23 -26 49 -36 47 -18 78 -17 80 3 1 6 2
21 3 31 0 11 10 23 21 26 27 9 26 29 -2 22 -21 -6 10 26 82 82 28 22 20 42
-10 23 -25 -16 -30 -15 -30 2 0 14 36 46 52 46 5 0 8 -7 8 -15 0 -23 21 -18
51 11 l27 26 41 -30 c26 -19 49 -28 61 -25 14 4 20 0 20 -10 0 -9 14 -32 30
-50 23 -26 30 -44 30 -75 0 -23 4 -44 10 -47 6 -4 9 4 7 17 -2 21 3 24 80 35
45 6 86 14 90 16 5 3 10 125 11 271 l3 266 -839 0 -839 0 -4 -62z m696 -123
c75 -12 76 -13 69 -51 -7 -40 -3 -41 81 -19 75 19 86 14 78 -41 -4 -35 -2 -45
11 -50 23 -9 20 -33 -7 -45 -16 -7 -31 -7 -51 1 -23 9 -26 13 -16 25 10 12 10
15 -3 15 -20 0 -31 -16 -17 -25 33 -20 -21 -65 -77 -65 -25 0 -62 -9 -84 -21
-28 -14 -56 -20 -90 -18 -52 3 -74 -6 -43 -17 10 -4 27 -16 36 -28 l17 -21 16
23 c16 21 43 33 30 12 -4 -6 8 -10 27 -11 l33 0 -40 -19 c-44 -20 -110 -26
-120 -10 -4 6 -10 8 -14 6 -12 -8 -52 24 -46 35 4 5 1 9 -4 9 -6 0 -11 -4 -11
-8 0 -5 -16 -16 -36 -26 -36 -16 -37 -16 -51 4 -10 14 -21 19 -33 15 -33 -10
-57 10 -58 51 -1 20 -9 45 -18 55 -15 17 -13 19 23 36 21 10 55 20 76 21 22 2
58 10 80 18 23 9 58 18 77 20 19 3 49 7 66 10 l32 4 -6 66 c-5 62 -4 66 14 61
10 -3 37 -9 59 -12z m948 -143 c24 -21 21 -31 -10 -38 -16 -4 -41 -13 -57 -21
-23 -12 -26 -17 -15 -24 12 -8 11 -12 -3 -23 -25 -18 -23 -24 10 -28 23 -3 20
-6 -26 -22 -62 -21 -78 -14 -62 29 7 18 7 32 1 38 -9 9 16 49 72 114 18 21 21
21 46 6 14 -9 34 -23 44 -31z m-789 -328 c8 -25 -16 -54 -42 -54 -9 0 -46 5
-82 11 -59 9 -66 9 -80 -9 -17 -21 -53 -23 -72 -4 -7 7 -18 12 -25 12 -7 0
-23 6 -36 13 -12 6 -23 12 -25 13 -7 3 11 34 20 34 6 0 7 -7 4 -16 -3 -8 -2
-13 3 -9 5 3 21 1 35 -5 16 -6 27 -6 31 0 4 6 1 10 -5 10 -6 0 -9 4 -5 10 8
13 122 7 137 -8 15 -15 38 -16 38 -2 0 6 -4 10 -10 10 -5 0 -10 4 -10 9 0 10
100 20 111 11 4 -3 10 -15 13 -26z m133 -190 c4 -10 13 -14 28 -10 20 5 22 3
17 -17 -5 -20 -4 -21 12 -8 22 19 95 22 127 7 16 -8 33 -10 42 -5 17 10 33
-16 17 -26 -17 -11 -11 -32 13 -43 19 -10 16 -11 -20 -6 -46 6 -53 0 -25 -23
15 -12 14 -13 -13 -9 -65 10 -102 20 -152 42 -51 22 -57 30 -54 67 3 23 -26
22 -41 -3 -19 -30 -46 -26 -40 5 3 18 11 25 28 25 13 0 24 5 24 10 0 16 30 11
37 -6z"/>
<path d="M3555 2238 c2 -68 6 -159 8 -203 3 -44 2 -84 -1 -90 -3 -5 -8 -162
-9 -347 l-4 -338 268 -1 c553 -2 1406 1 1409 4 4 4 4 481 0 517 -2 22 -7 25
-37 23 l-34 -3 35 14 c35 13 47 34 36 62 -5 12 -10 13 -38 1 -18 -7 -61 -14
-95 -16 l-63 -2 0 49 c0 32 5 54 15 62 22 19 18 39 -10 46 -14 3 -25 10 -25
15 0 5 -11 9 -25 9 -14 0 -25 5 -25 10 0 6 -9 10 -20 10 -22 0 -27 16 -7 23 6
3 -1 4 -18 4 -24 -2 -30 2 -30 18 -1 42 -17 105 -27 105 -6 0 -5 6 2 15 7 8
18 15 24 15 6 0 17 9 24 21 7 12 16 19 18 16 3 -3 26 4 51 15 90 40 179 31
211 -21 20 -33 27 -25 30 34 l3 54 -745 1 c-641 0 -746 -2 -746 -14 0 -8 5
-16 11 -18 14 -5 0 -38 -17 -38 -15 0 -36 33 -32 52 2 9 -17 14 -69 16 l-73 3
5 -123z m845 -77 c16 -5 24 -14 23 -25 -1 -13 17 -26 60 -47 34 -16 58 -29 52
-29 -5 0 -3 -5 5 -11 12 -8 9 -9 -12 -5 -44 10 -33 -11 15 -27 23 -9 34 -16
23 -16 -19 -1 -88 33 -119 59 -11 8 -26 15 -35 15 -8 0 -17 6 -19 13 -3 8 1
10 14 5 11 -4 8 2 -9 15 -27 23 -54 30 -43 12 3 -5 -1 -10 -9 -10 -10 0 -13 6
-10 15 4 8 1 15 -5 15 -6 0 -11 -4 -11 -10 0 -5 -7 -10 -16 -10 -8 0 -12 5 -9
10 9 15 -27 12 -48 -4 -10 -8 -28 -12 -40 -9 -17 4 -19 3 -7 -6 16 -11 17 -10
-30 -38 -23 -14 -42 -18 -55 -13 -16 6 -30 -3 -68 -44 -50 -52 -74 -63 -94
-40 -9 9 -8 15 4 26 14 11 16 11 8 -2 -8 -13 -6 -13 7 -2 9 8 14 20 12 27 -14
35 239 143 336 143 30 0 66 -3 80 -7z m364 -204 c-4 -6 -4 -9 1 -5 4 4 14 3
22 -3 10 -9 18 -6 33 12 10 13 19 28 20 33 0 10 49 -21 70 -45 9 -10 25 -17
35 -16 14 1 19 -3 17 -15 -2 -10 2 -18 8 -18 7 0 5 -6 -4 -15 -20 -20 -26 -19
-27 8 l-2 22 -4 -22 c-2 -13 -8 -23 -13 -23 -4 0 -10 -7 -14 -15 -3 -9 0 -15
9 -15 8 0 15 8 15 18 0 14 2 14 9 3 8 -12 15 -13 34 -4 23 11 26 9 37 -17 15
-37 5 -69 -26 -75 -13 -3 -35 -7 -49 -10 -14 -3 -25 -12 -25 -20 0 -8 -3 -14
-7 -14 -22 4 -43 -2 -43 -12 0 -6 9 -8 20 -4 11 4 20 2 20 -4 0 -6 -15 -11
-34 -11 -26 0 -38 6 -52 28 -10 15 -17 29 -15 31 1 2 -3 7 -10 12 -10 6 -9 10
6 15 11 4 22 11 25 14 3 4 19 14 35 23 17 9 24 16 17 17 -7 0 -24 -8 -38 -17
-19 -12 -28 -13 -33 -5 -6 9 -15 8 -40 -4 -18 -9 -41 -14 -52 -11 -10 3 -22 1
-25 -4 -7 -12 -34 -12 -34 1 0 5 16 17 35 26 37 17 54 34 36 34 -21 0 -11 21
14 30 28 10 34 30 10 30 -21 0 -30 27 -16 44 9 10 9 16 1 21 -8 5 -8 11 1 21
10 12 14 11 26 -6 8 -11 11 -26 7 -33z"/>
<path d="M1488 2054 c-12 -13 -37 -17 -97 -18 -45 0 -81 -4 -81 -9 0 -12 50
-87 58 -87 5 0 16 16 26 36 l17 37 39 -38 c28 -27 43 -35 58 -31 15 5 22 2 27
-13 8 -25 44 -71 56 -71 5 0 9 23 9 50 0 41 7 62 35 106 l36 56 -43 -7 c-24
-3 -58 -9 -75 -12 -21 -3 -33 -1 -33 6 0 16 -13 14 -32 -5z"/>
<path d="M110 670 l0 -550 843 2 842 3 2 548 3 547 -845 0 -845 0 0 -550z
m1358 146 c26 -23 27 -40 8 -78 -10 -20 -11 -30 -4 -34 7 -5 2 -11 -13 -16
-18 -7 -20 -11 -10 -18 8 -4 11 -15 8 -24 -5 -11 1 -20 18 -28 l24 -11 -22
-17 c-14 -12 -26 -15 -33 -9 -8 6 -14 4 -18 -7 -12 -32 -7 -37 35 -31 33 4 39
3 35 -9 -3 -8 1 -26 10 -40 10 -14 12 -24 5 -24 -6 0 -18 11 -27 26 -9 14 -22
23 -28 21 -6 -2 -24 2 -41 9 -16 7 -24 13 -17 14 17 0 15 35 -3 50 -19 16 -19
40 -1 40 9 0 14 9 13 20 -1 12 -8 20 -19 20 -10 0 -18 6 -18 13 0 9 -2 9 -8 0
-8 -13 -131 -47 -140 -39 -4 5 51 32 101 49 33 12 19 30 -18 23 -47 -9 -38 15
16 39 26 12 47 33 65 62 28 48 26 48 82 -1z"/>
<path d="M1840 1117 c0 -56 -2 -303 -4 -550 l-4 -447 839 0 839 0 1 38 c1 20
2 162 3 315 l1 279 -40 -6 c-22 -3 -65 -8 -95 -12 -64 -8 -100 -23 -60 -25 14
-1 28 -1 33 0 4 0 7 -3 7 -8 0 -10 -122 -27 -252 -36 -48 -3 -141 -12 -205
-21 -112 -14 -163 -13 -163 4 0 4 36 13 80 20 77 12 170 44 170 58 0 4 -28 4
-62 1 -39 -3 -56 -2 -47 4 8 5 30 9 49 9 47 0 110 18 110 32 0 6 -9 8 -20 5
-24 -6 -26 18 -6 73 l13 35 24 -43 c21 -37 49 -56 49 -34 0 4 9 18 19 31 l19
25 37 -33 c24 -21 45 -31 56 -28 11 3 19 0 19 -7 0 -22 51 -68 69 -61 9 4 43
11 76 16 117 18 116 18 113 47 -2 20 -10 28 -28 31 -24 3 -23 4 10 17 l35 13
-45 -5 c-25 -3 -70 -10 -100 -16 -46 -9 -51 -12 -30 -18 l25 -6 -22 -8 c-34
-11 -48 2 -26 26 22 26 74 48 109 48 23 0 25 2 13 16 -25 30 -58 35 -162 24
-227 -24 -251 -25 -243 -5 3 10 1 24 -5 31 -9 11 -8 14 5 14 10 0 15 3 13 8
-3 4 52 6 121 4 127 -3 227 -21 270 -48 12 -8 33 -21 47 -30 l25 -16 -3 170
-2 169 -295 -3 c-379 -4 -562 -4 -1012 1 l-368 5 0 -103z m1110 -46 c0 -5 -7
-14 -15 -21 -23 -19 -20 -114 4 -131 16 -12 18 -21 12 -54 l-7 -40 -54 0 c-53
0 -55 -1 -64 -32 -12 -40 -35 -43 -165 -24 -87 13 -96 13 -127 -4 -28 -15 -57
-18 -157 -18 -68 0 -139 5 -158 11 -18 5 -46 13 -61 16 -16 4 -28 11 -28 17 0
6 -10 19 -22 30 l-23 18 32 1 c47 0 66 -9 52 -26 -13 -16 -19 -16 157 -16 92
0 128 4 152 16 23 12 62 16 159 17 164 1 217 18 103 34 -61 8 -173 35 -185 45
-5 4 -59 10 -120 14 -60 4 -114 11 -119 16 -16 16 174 12 230 -5 27 -8 110
-16 187 -19 79 -3 145 -10 152 -16 10 -8 15 -6 20 10 9 27 -2 70 -23 94 -16
17 -15 20 18 47 35 30 50 36 50 20z m-315 -20 c72 -2 144 0 160 3 24 5 26 5
10 -4 -11 -5 -33 -15 -50 -21 l-30 -11 28 -14 c23 -13 55 -19 110 -23 4 -1 7
-10 7 -20 0 -21 -22 -33 -45 -25 -8 3 -46 9 -85 13 -67 6 -95 22 -49 29 39 6
-27 32 -82 32 -52 0 -67 16 -21 23 22 3 20 4 -10 6 -22 0 -38 -4 -38 -10 0 -7
-16 -9 -47 -5 -27 3 -81 8 -120 12 -40 4 -71 9 -69 13 4 6 117 7 331 2z m-485
-141 c10 -5 80 -14 156 -20 177 -13 221 -19 203 -31 -8 -5 -33 -9 -56 -9 -24
0 -43 -4 -43 -10 0 -15 -81 -12 -99 4 -10 9 -50 17 -106 21 -158 11 -188 21
-127 43 36 14 50 14 72 2z m1155 -259 c-22 -19 -130 -44 -246 -55 -92 -9 -118
-14 -99 -21 24 -8 24 -8 5 -16 -28 -12 83 -3 115 9 14 5 78 13 143 17 107 6
117 9 112 25 -5 14 1 20 25 24 16 3 44 9 61 12 22 4 29 3 25 -5 -4 -6 -18 -11
-32 -11 -15 0 -24 -6 -24 -16 0 -14 3 -14 15 -4 22 18 28 8 27 -46 -2 -58 -12
-72 -12 -16 0 23 -4 42 -10 42 -5 0 -10 -7 -10 -15 0 -8 -8 -16 -17 -16 -72
-5 -111 -18 -57 -20 16 0 23 -3 17 -6 -7 -2 -13 -21 -12 -41 0 -34 1 -35 10
-13 16 39 19 18 4 -24 -8 -22 -14 -32 -15 -21 0 13 -5 17 -20 13 -14 -4 -20 0
-20 11 0 11 -9 18 -25 18 -14 1 -25 -3 -25 -9 0 -5 -8 -3 -19 7 -15 13 -24 15
-46 6 -15 -6 -30 -8 -33 -5 -3 3 1 5 9 5 12 0 11 2 -1 10 -13 9 -13 11 -1 19
10 6 -15 11 -75 13 -103 4 -137 0 -129 -13 4 -5 2 -9 -3 -9 -14 0 -25 34 -13
38 29 10 4 20 -64 25 -41 4 -89 13 -107 22 l-33 14 32 -3 c17 -2 34 -2 37 1 3
3 36 7 73 9 37 1 109 10 158 19 183 34 300 45 280 26z m-630 -111 c-3 -6 3
-10 15 -10 13 0 19 4 14 11 -6 11 8 10 113 -8 18 -3 38 -12 45 -21 11 -13 9
-14 -17 -8 -43 11 -335 15 -341 5 -8 -13 -78 -11 -91 2 -6 6 -39 13 -73 16
-106 10 -49 18 150 21 130 2 189 -1 185 -8z"/>
<path d="M3552 1130 c-2 -50 0 -95 3 -100 3 -5 17 -2 32 5 21 11 29 12 35 2 4
-7 8 -8 8 -2 0 5 5 4 12 -3 7 -7 17 -12 23 -12 5 0 4 4 -4 9 -12 8 -11 14 5
38 10 15 19 37 19 48 0 13 8 21 22 23 13 2 29 12 37 23 13 19 14 19 34 -16
l21 -35 -24 -16 c-18 -12 -25 -25 -25 -50 0 -18 5 -36 10 -39 8 -5 7 -11 -1
-21 -17 -20 -38 -18 -32 4 5 21 -21 47 -36 37 -6 -3 -8 -18 -5 -33 3 -19 -2
-36 -20 -57 -23 -28 -25 -28 -26 -9 0 29 -50 81 -73 76 -14 -3 -15 -7 -7 -17
7 -9 7 -21 0 -39 -5 -15 -10 -49 -10 -76 0 -49 0 -49 25 -40 14 5 25 7 25 4 0
-4 -11 -15 -25 -26 -21 -16 -25 -28 -25 -70 0 -44 2 -49 15 -38 8 7 15 8 15 2
0 -5 -7 -15 -15 -22 -22 -18 -19 -98 5 -143 25 -46 25 -46 -1 -40 -17 5 -20 2
-17 -18 3 -21 8 -24 46 -24 45 0 55 -9 21 -20 -13 -5 -18 -10 -11 -17 6 -6 23
0 47 16 21 14 42 26 46 26 21 0 6 29 -20 40 -16 6 -32 19 -35 27 -4 8 -13 13
-21 9 -8 -3 -15 -1 -15 5 0 7 16 10 39 7 22 -2 37 0 35 4 -3 4 8 15 23 25 15
10 31 21 34 26 3 4 11 1 18 -7 7 -8 20 -12 29 -8 15 5 15 4 -1 -12 -9 -10 -22
-26 -27 -36 -11 -21 -3 -53 11 -44 5 3 9 2 9 -3 0 -4 -16 -19 -35 -32 -19 -13
-35 -27 -35 -32 0 -5 -9 -18 -21 -30 -12 -12 -19 -29 -16 -40 3 -10 -1 -23 -9
-30 -11 -9 -14 -9 -14 1 0 6 -6 10 -12 7 -7 -2 -12 -12 -10 -21 3 -14 0 -16
-17 -7 -11 6 -29 11 -41 11 -20 0 -21 -4 -18 -92 l3 -93 50 -3 c31 -2 62 3 79
12 24 12 33 12 62 0 46 -19 93 -18 139 6 49 25 57 25 80 0 10 -11 31 -20 48
-20 l30 0 -7 50 c-4 31 -3 50 3 50 15 0 44 47 37 59 -4 6 -27 -1 -56 -16 -28
-14 -53 -24 -56 -20 -3 3 -1 21 4 40 8 27 7 40 -5 56 -18 26 -3 27 28 2 16
-12 34 -17 51 -14 20 4 30 0 40 -16 16 -27 31 -27 23 -1 -12 37 7 45 25 10 18
-34 80 -71 80 -47 0 20 -21 36 -37 30 -13 -5 -32 11 -33 29 0 3 27 4 60 1 41
-4 60 -2 60 5 0 7 -11 14 -24 18 -21 5 -26 18 -16 44 1 3 2 9 1 13 -1 4 7 11
16 14 10 4 23 12 28 19 10 13 80 36 123 40 13 2 22 -3 22 -11 0 -24 -12 -45
-26 -45 -8 0 -14 -4 -14 -10 0 -5 5 -10 10 -10 6 0 10 -7 10 -15 0 -16 18 -19
38 -7 7 5 35 6 62 2 27 -3 51 -3 52 0 2 4 13 10 25 14 17 6 22 2 25 -16 2 -13
0 -36 -4 -52 l-8 -29 31 31 c17 18 34 32 38 32 3 0 12 -12 18 -28 12 -27 67
-57 84 -46 5 3 9 18 9 34 0 15 6 31 13 33 7 4 6 6 -4 6 -25 1 -41 25 -27 39 7
7 8 12 3 12 -6 0 -3 5 5 10 13 9 12 13 -9 30 -27 23 -36 20 -46 -17 -7 -30
-31 -52 -57 -53 -22 0 -61 37 -53 51 7 11 -21 60 -41 72 -7 4 -16 33 -19 65
-4 31 -9 65 -12 75 -8 28 27 34 49 7 10 -12 16 -26 13 -29 -4 -3 -11 2 -16 12
-17 30 -30 18 -14 -13 9 -16 23 -30 33 -30 9 0 30 -7 46 -15 26 -14 31 -14 46
0 9 8 31 15 48 15 17 0 34 4 37 10 3 5 16 15 27 21 20 11 20 10 -3 -19 -15
-19 -34 -31 -49 -32 -14 0 -36 -7 -50 -15 l-25 -14 25 -1 c15 0 31 5 38 12 9
9 18 7 39 -8 36 -27 40 -44 11 -45 -17 -1 -18 -3 -5 -6 9 -2 17 -11 17 -19 0
-8 7 -14 16 -14 8 0 12 -5 8 -11 -6 -11 14 -59 26 -59 10 0 9 69 -1 76 -11 6
-2 24 12 24 6 0 7 -5 3 -11 -5 -9 1 -10 20 -5 21 5 26 3 26 -13 0 -11 -4 -22
-9 -25 -14 -9 9 -84 28 -89 13 -4 12 -6 -6 -12 l-21 -7 20 -44 c17 -40 18 -46
4 -60 -9 -8 -20 -22 -25 -31 -8 -15 -11 -15 -35 0 -20 14 -31 15 -46 7 -16 -9
-20 -8 -20 6 0 16 -1 16 -18 1 -24 -22 -40 -21 -65 0 -20 17 -20 17 -14 0 4
-10 7 -28 7 -39 0 -20 1 -20 18 -5 23 21 46 22 39 3 -4 -10 2 -16 20 -18 26
-3 26 -4 9 -21 -10 -10 -16 -20 -13 -23 7 -7 57 18 52 26 -2 4 7 5 22 2 21 -4
25 -2 20 12 -4 9 -2 16 2 16 5 0 17 3 26 6 13 5 15 2 10 -19 -13 -49 65 -65
111 -22 28 26 20 38 -21 34 -28 -3 -85 23 -85 38 0 16 1 16 37 3 25 -9 26 -8
11 4 -20 14 -25 80 -8 91 6 3 10 0 10 -7 0 -8 6 -6 18 6 13 14 14 20 4 23 -23
9 -42 34 -42 58 0 13 -4 27 -10 30 -15 9 -12 25 5 25 8 0 17 -11 21 -25 3 -14
12 -25 19 -25 16 0 27 42 15 54 -6 6 -10 15 -10 22 0 16 41 5 57 -15 11 -14
12 -13 13 7 0 12 4 22 9 22 16 0 18 -24 4 -50 -8 -15 -11 -39 -7 -62 4 -24 0
-47 -12 -70 l-17 -33 25 22 c25 24 88 42 88 26 0 -5 -20 -29 -45 -53 -36 -36
-42 -46 -30 -53 9 -4 23 -4 33 2 13 8 13 10 3 11 -10 0 -12 3 -5 10 7 7 30 7
64 3 48 -7 54 -11 61 -37 8 -28 7 -28 -32 -24 -21 2 -39 2 -39 1 0 -1 12 -9
28 -17 26 -15 24 -15 -47 -16 -99 0 -80 -16 27 -22 l82 -5 0 189 c0 119 -4
188 -10 188 -5 0 -10 9 -10 20 0 11 5 20 10 20 15 0 12 100 -3 106 -7 2 -29 1
-49 -3 -34 -7 -35 -9 -22 -27 13 -19 14 -19 36 0 20 18 21 18 15 1 -4 -10 -7
-25 -7 -33 0 -22 -28 -16 -45 10 -21 31 -43 40 -64 24 -14 -12 -14 -11 -2 4
12 16 11 18 -11 18 -17 0 -27 9 -38 33 -7 17 -15 35 -18 40 -2 4 3 4 12 1 9
-3 16 -15 16 -26 0 -11 5 -18 11 -16 6 2 10 7 10 11 -1 4 -1 14 -1 22 0 8 -6
15 -14 15 -15 0 -36 49 -36 83 0 16 3 17 15 7 10 -9 15 -9 16 -1 3 20 4 26 18
58 14 35 47 56 36 24 -6 -20 9 -36 40 -44 15 -3 13 -5 -8 -6 -16 0 -37 4 -48
9 -12 7 -19 7 -19 1 0 -17 40 -33 67 -26 34 8 54 -11 47 -42 -6 -23 -4 -25 17
-19 13 3 8 -1 -11 -10 -19 -9 -43 -20 -52 -25 -10 -5 -25 -6 -34 -2 -13 5 -15
2 -9 -18 13 -42 24 -45 129 -40 11 1 14 21 16 84 2 104 3 323 1 405 l-1 62
-203 0 c-145 0 -206 -3 -215 -12 -9 -9 -12 -9 -12 0 0 9 -29 11 -106 9 -95 -2
-108 -4 -118 -22 -44 -79 -68 -106 -89 -99 -30 9 -32 11 -17 29 15 18 -1 20
-18 3 -8 -8 -12 -9 -12 -1 0 6 18 27 40 46 33 28 38 36 25 41 -25 9 -122 7
-107 -3 7 -4 25 -6 39 -3 19 4 24 1 21 -9 -6 -18 -59 -13 -74 7 -12 15 -69 20
-60 5 9 -14 -17 -19 -31 -6 -8 9 -76 13 -229 14 l-216 2 6 -25 c5 -19 2 -26
-13 -31 -12 -4 -18 -12 -14 -21 3 -7 1 -14 -4 -14 -12 0 -33 45 -33 70 0 19
-8 20 -118 20 l-118 0 -2 -90z m1389 49 c4 -6 15 -6 34 1 19 7 31 8 39 0 7 -7
3 -10 -12 -10 -12 0 -22 -4 -22 -10 0 -5 5 -10 10 -10 6 0 10 -4 10 -10 0 -16
-30 -12 -36 5 -6 14 -8 14 -18 1 -6 -8 -38 -31 -70 -51 -70 -41 -67 -46 5 -9
28 14 52 24 54 22 1 -2 7 -16 12 -33 8 -25 17 -32 55 -40 24 -5 60 -23 78 -39
33 -27 33 -29 15 -42 -21 -16 -51 -18 -59 -5 -3 5 4 11 15 14 22 6 22 28 1 35
-8 2 -10 -3 -6 -15 4 -11 -2 -8 -16 9 -12 16 -27 25 -35 21 -8 -3 -15 -1 -15
5 0 19 -61 2 -83 -23 -13 -15 -43 -31 -77 -39 -50 -13 -59 -13 -94 3 -21 10
-34 21 -28 25 6 3 14 1 17 -5 5 -7 21 4 44 28 33 34 55 68 48 76 -1 1 8 14 21
27 16 17 21 32 17 48 -3 13 -3 28 1 34 8 12 85 2 95 -13z m-451 -120 c0 -6 6
-9 14 -6 48 19 108 -50 78 -89 -9 -12 -12 -13 -9 -4 6 21 -11 50 -29 50 -8 0
-12 -5 -9 -11 13 -20 -6 -61 -48 -99 -41 -38 -41 -40 -24 -57 18 -17 19 -17
34 5 9 12 21 22 28 22 7 0 18 7 25 16 8 8 22 20 32 25 18 9 18 8 8 -10 -20
-38 -69 -108 -85 -121 -21 -17 -42 -6 -67 35 -17 30 -25 35 -45 30 -16 -4 -22
-2 -18 5 3 6 -3 10 -15 10 -16 0 -20 -4 -16 -15 4 -13 2 -14 -14 -5 -23 12
-25 21 -8 38 6 6 8 15 4 19 -4 4 -22 -9 -41 -30 -40 -43 -61 -47 -77 -12 -9
21 -6 32 28 84 21 33 42 57 46 55 17 -11 86 18 113 46 21 22 38 30 62 30 18 0
33 -5 33 -11z m-489 -59 c10 -7 10 -16 -1 -49 -17 -54 -9 -60 22 -16 22 31 27
34 38 20 7 -8 17 -15 23 -15 17 0 57 -42 57 -59 0 -9 -9 -27 -20 -41 -11 -14
-20 -33 -20 -42 0 -17 -28 -38 -50 -38 -7 0 -10 7 -7 14 4 10 1 13 -9 9 -9 -3
-14 1 -14 12 0 9 5 13 10 10 15 -9 25 24 11 38 -9 9 -14 8 -22 -3 -8 -11 -9
-9 -4 10 4 14 16 39 27 55 l21 30 -30 -27 c-16 -16 -34 -28 -41 -28 -6 0 -18
-13 -26 -29 -14 -26 -14 -30 -1 -41 8 -7 15 -22 15 -34 0 -16 -6 -21 -28 -21
-19 0 -29 5 -29 17 -1 10 2 20 8 23 10 7 13 55 3 55 -3 0 -20 -10 -36 -22 -28
-19 -30 -24 -24 -65 3 -24 2 -42 -3 -39 -16 10 -41 74 -35 89 3 8 1 18 -5 22
-7 3 -8 0 -5 -9 3 -9 3 -16 -1 -16 -15 0 -85 62 -85 76 0 8 20 24 45 36 28 14
45 29 45 39 0 10 5 21 12 25 32 20 134 29 159 14z m985 -16 c23 -16 24 -18 7
-36 -9 -10 -26 -17 -36 -16 -11 2 -22 -3 -24 -9 -3 -7 0 -13 6 -13 6 0 11 -10
11 -22 0 -17 -3 -19 -12 -10 -14 14 -57 16 -76 4 -9 -6 -6 -14 13 -32 14 -13
23 -30 21 -37 -3 -7 -1 -15 4 -18 6 -4 10 -2 10 3 0 5 11 12 25 14 14 3 25 5
25 4 0 0 -11 -23 -23 -49 -22 -44 -81 -96 -94 -83 -8 8 7 26 23 26 8 0 14 7
14 15 0 21 -16 19 -45 -7 -18 -15 -22 -25 -14 -34 6 -7 6 -14 1 -18 -14 -9
-23 22 -15 52 6 27 6 27 -16 8 -28 -25 -27 -22 14 58 36 68 39 99 10 110 -9 3
-12 12 -8 21 4 12 8 13 13 5 6 -9 13 -9 26 -1 12 6 14 11 5 11 -19 0 6 30 25
30 8 0 14 4 14 8 0 10 38 30 58 31 7 1 24 -6 38 -15z m-1066 -495 c8 -6 11
-12 5 -15 -25 -11 -39 -24 -32 -30 3 -4 13 -1 21 5 17 15 56 6 56 -13 0 -6
-13 -20 -30 -29 -30 -18 -43 -51 -16 -41 8 3 16 -4 20 -18 5 -18 -2 -30 -34
-59 -39 -35 -45 -59 -10 -37 22 14 50 4 50 -17 0 -11 -7 -15 -22 -13 -19 2
-22 -1 -20 -19 2 -13 -1 -23 -7 -23 -5 0 -11 10 -13 22 -2 15 -10 23 -23 23
-13 0 -21 8 -23 24 -3 18 -9 22 -26 19 -20 -4 -23 0 -25 35 -1 22 -6 48 -11
57 -11 20 6 38 55 62 17 8 29 20 27 27 -3 13 25 51 37 51 3 0 13 -5 21 -11z"/>
<path d="M4393 307 c-11 -7 -31 -18 -43 -25 -12 -8 -19 -9 -16 -3 14 22 -11
10 -39 -19 -16 -16 -37 -30 -47 -30 -25 0 -23 -16 3 -23 22 -6 22 -7 2 -69 -4
-15 5 -16 89 -14 l93 3 -1 59 c-1 33 -5 71 -9 87 -5 18 -3 27 4 27 6 0 11 -9
11 -20 0 -21 55 -89 64 -79 3 3 -3 17 -15 30 -11 13 -18 31 -16 39 10 38 -39
60 -80 37z"/>
</g>
</svg>
